<svg viewBox="0 0 80.6 120.5" enable-background="new 0 0 80.6 120.5" xml:space="preserve" class="" preserveAspectRatio="none">
<use x="0" y="0" href="#hal-outline" xlink:href="#hal-outline">
    <svg id="hal-outline" viewBox="0 0 69.3 103.5" width="100%" height="100%"><path d="M34.5 1.8l-.8 8.5h1.8l-1-8.5zM67.6 71.3V55.2l-4.3-.9v-8.4h-5.2v-8.7h-4.9v-9.8h-5.7v-9h-7.3v-2.7s.4-4.7-5.5-4.7c-5.7 0-5.5 4.7-5.5 4.7v2.7h-7.3v9h-5.7v9.8h-4.9v8.7H6.1v8.4l-4.3.9v16.1"></path><path d="M1.8 67.8v33.9h65.8V67.8M1.8 66.9h65.8M37.5 40.2h-6.1v-8.6h6.1v8.6zM24 54.7h-6.1v-8.6H24v8.6zM37.8 54.7h-6.1v-8.6h6.1v8.6zM51.5 54.7h-6.1v-8.6h6.1v8.6z"></path><path d="M17.9 89.7H9.6V73.8h8.2v15.9zM59.7 89.7h-8.2V73.8h8.2v15.9zM24.2 101.6h20.3v-14s.7-12-10.2-12-10.2 12.1-10.2 12.1v13.9h.1z"></path></svg>
</use>
</svg>