<?xml version="1.0" encoding="utf-8"?>
<!-- Generator: Adobe Illustrator 16.0.3, SVG Export Plug-In . SVG Version: 6.00 Build 0)  -->
<!DOCTYPE svg PUBLIC "-//W3C//DTD SVG 1.1//EN" "http://www.w3.org/Graphics/SVG/1.1/DTD/svg11.dtd">
<svg version="1.1" id="Layer_1" xmlns="http://www.w3.org/2000/svg" xmlns:xlink="http://www.w3.org/1999/xlink" x="0px" y="0px"
	 width="962.871px" height="561.062px" viewBox="-7 -7.539 962.871 561.062" enable-background="new -7 -7.539 962.871 561.062"
	 xml:space="preserve">
<g>
	<path fill="none" stroke="#000000" stroke-width="20" stroke-miterlimit="10" d="M473.723,63.058V15.986 M451.377,98.767V83.078
		c0,0-0.95-20.562,22.348-20.562c23.3,0,22.822,21.103,22.822,21.103v15.148"/>
	<path fill="none" stroke="#000000" stroke-width="20" stroke-miterlimit="10" d="M496.545,162.072V98.767
		c0,0,0.477-9.197-22.822-9.197c-23.298,0-22.349,9.197-22.349,9.197v64.387"/>
	<path fill="none" stroke="#000000" stroke-width="20" stroke-miterlimit="10" d="M424.273,198.865h-17.117l66.566-53.023
		l66.564,53.023H424.273z M944.92,322.226l-45.646-123.361H60.533L3,324.932v218.59h942.871V321.685h-0.949L944.92,322.226
		L944.92,322.226z"/>
	<path fill="none" stroke="#000000" stroke-width="20" stroke-miterlimit="10" d="M944.92,323.309H578.803v-36.792H541.24v-49.236
		h-25.2v-38.415h-84.634v38.957h-25.201v49.235h-37.563v36.251H2.525 M482.282,12.198c0,5.411-3.806,9.739-8.56,9.739
		s-8.56-4.328-8.56-9.739c0-5.409,3.806-9.737,8.56-9.737S482.282,7.87,482.282,12.198z M102.851,505.646H41.04V401.222h61.812
		L102.851,505.646L102.851,505.646z M202.226,505.646h-61.337V401.222h61.337V505.646z M302.077,505.646h-61.813V401.222h61.337
		L302.077,505.646z M401.452,505.646h-61.337V401.222h61.337V505.646z M608.284,505.646h-61.338V401.222h61.338V505.646z
		 M708.133,505.646h-61.336V401.222h61.336V505.646z M807.983,505.646h-61.337V401.222h61.337V505.646z M907.834,505.646h-61.338
		V401.222h61.338V505.646z M508.909,544.062V425.03c0-37.875-67.994-36.252-67.994,0v119.032"/>
	<path fill="none" stroke="#000000" stroke-width="20" stroke-miterlimit="10" d="M107.605,296.257h37.563v-49.234
		c0,0,0-22.186-19.019-22.186c-18.544,0-18.544,22.186-18.544,22.186V296.257L107.605,296.257z M243.117,296.257h37.563v-49.234
		c0,0,0-22.186-19.02-22.186c-18.543,0-18.543,22.186-18.543,22.186V296.257L243.117,296.257z M664.389,296.257h37.563v-49.234
		c0,0,0-22.186-19.019-22.186c-18.545,0-18.545,22.186-18.545,22.186V296.257z M803.229,296.257h37.563v-49.234
		c0,0,0-22.186-19.021-22.186c-18.543,0-18.543,22.186-18.543,22.186V296.257L803.229,296.257z"/>
</g>
</svg>
