<?xml version="1.0" encoding="utf-8"?>
<!-- Generator: Adobe Illustrator 16.0.3, SVG Export Plug-In . SVG Version: 6.00 Build 0)  -->
<!DOCTYPE svg PUBLIC "-//W3C//DTD SVG 1.1//EN" "http://www.w3.org/Graphics/SVG/1.1/DTD/svg11.dtd">
<svg version="1.1" id="Layer_1" xmlns="http://www.w3.org/2000/svg" xmlns:xlink="http://www.w3.org/1999/xlink" x="0px" y="0px"
	 width="424.685px" height="698.849px" viewBox="208.221 -96.425 424.685 698.849"
	 enable-background="new 208.221 -96.425 424.685 698.849" xml:space="preserve">
<path fill="none" stroke="#000000" stroke-width="25" stroke-miterlimit="10" d="M419.348,15.938l-4.859,48.837h10.935
	L419.348,15.938z M620.406,415.258v-92.505l-26.119-5.174v-48.264h-31.586v-49.983h-29.769v-56.311h-34.618v-51.71h-44.347V95.801
	c0,0,2.435-27.004-33.405-27.004c-34.623,0-33.408,27.004-33.408,27.004v15.515h-44.342v51.71h-34.623v56.311h-29.767v49.983H246.84
	v48.264l-26.116,5.174v92.505"/>
<path fill="none" stroke="#000000" stroke-width="25" stroke-miterlimit="10" d="M220.721,395.147v194.776h399.685V395.147
	 M220.721,389.977h399.685 M437.572,236.568h-37.055v-49.412h37.055V236.568L437.572,236.568z M355.568,319.881h-37.053v-49.414
	h37.053V319.881L355.568,319.881z M439.394,319.881H402.34v-49.414h37.054L439.394,319.881L439.394,319.881z M522.611,319.881
	h-37.058v-49.414h37.058V319.881L522.611,319.881z"/>
<path fill="none" stroke="#000000" stroke-width="25" stroke-miterlimit="10" d="M318.516,520.977H268.1v-91.355h49.809v91.355
	H318.516z M572.419,520.977H522.61v-91.355h49.809V520.977L572.419,520.977z M356.783,589.349h123.308V508.91
	c0,0,4.252-68.943-61.958-68.943c-66.209,0-61.957,69.521-61.957,69.521v79.864L356.783,589.349L356.783,589.349z"/>
</svg>
