<?xml version="1.0" encoding="iso-8859-1"?>
<!-- Generator: Adobe Illustrator 16.0.3, SVG Export Plug-In . SVG Version: 6.00 Build 0)  -->
<!DOCTYPE svg PUBLIC "-//W3C//DTD SVG 1.1//EN" "http://www.w3.org/Graphics/SVG/1.1/DTD/svg11.dtd">
<svg version="1.1" id="haarlem" xmlns="http://www.w3.org/2000/svg" xmlns:xlink="http://www.w3.org/1999/xlink" x="0px" y="0px"
	 width="960px" height="274.031px" viewBox="0 142.985 960 274.031" style="enable-background:new 0 142.985 960 274.031;"
	 xml:space="preserve">
<path d="M126.09,193.971h-25.897v67.334H25.898v-67.334H0V366.03h25.898v-80.283h74.294v80.283h25.897V193.971z M474.901,292.706
	c11.492-2.428,20.718-8.094,27.679-16.834c6.96-8.74,10.521-19.262,10.521-31.401c0-15.538-5.503-28.163-16.672-37.713
	c-10.035-8.579-26.545-12.787-49.206-12.787h-30.43V366.03h25.898v-70.41h4.693l49.206,70.41h31.725L474.901,292.706z
	 M442.529,272.959v-54.548h9.226c23.956,0,35.934,8.741,35.934,26.384c0,18.775-12.302,28.164-36.904,28.164H442.529
	L442.529,272.959z M629.155,341.588h-50.501V193.971h-26.06V366.03h76.561V341.588z M749.095,341.588h-68.953v-57.461h66.849v-24.44
	h-66.849v-41.275h68.953v-24.44h-95.013V366.03h95.013V341.588z M927.466,181.022l-61.184,133.697l-59.079-133.697L770.946,366.03
	h26.868l18.453-103.915l49.529,111.846l50.986-111.846l16.51,103.915H960L927.466,181.022z M184.36,188.791l-43.703,13.596
	l37.39,28.326l-0.485,48.073l36.743-28.164l43.541,16.024l-14.891-45.807l27.354-38.2h-45.807l-26.545-39.655L184.36,188.791z
	 M300.253,220.84l-14.891,45.807l43.541-16.024l36.743,28.164l-0.486-48.073l37.39-28.326l-43.703-13.596l-13.596-45.807
	l-26.545,39.655h-45.807L300.253,220.84z M402.549,357.45l-37.39-28.326l0.486-48.072l-36.743,28.325l-43.541-16.023l14.891,45.807
	l-27.354,38.199h45.807l26.545,39.656l13.596-45.808L402.549,357.45z M242.954,339.16l14.891-45.807l-43.541,16.023l-36.743-28.325
	l0.485,48.072l-37.39,28.326l43.703,13.758l13.596,45.808l26.545-39.656h45.807L242.954,339.16z"/>
</svg>
