<?xml version="1.0" encoding="iso-8859-1"?>
<!-- Generator: Adobe Illustrator 16.0.3, SVG Export Plug-In . SVG Version: 6.00 Build 0)  -->
<!DOCTYPE svg PUBLIC "-//W3C//DTD SVG 1.1//EN" "http://www.w3.org/Graphics/SVG/1.1/DTD/svg11.dtd">
<svg version="1.1" id="BGL" xmlns="http://www.w3.org/2000/svg" xmlns:xlink="http://www.w3.org/1999/xlink" x="0px" y="0px"
	 width="960px" height="160.113px" viewBox="0 197.847 960 160.113" style="enable-background:new 0 197.847 960 160.113;"
	 xml:space="preserve">
<path d="M144.589,313.087c-0.907,0-1.36,0.907-2.267,1.813c-0.906,0.906-2.266,1.813-4.079,1.813c-4.533,0-4.533-6.345-4.533-10.425
	v-32.181c0-6.799,0-9.065-2.719-11.331c-4.08-3.173-10.425-4.08-15.411-4.08c-19.037,0-32.634,12.238-32.634,19.943
	c0,1.813,0.906,2.72,2.719,2.72s4.533-0.906,6.346-1.359c2.72-1.36,4.08-3.626,5.439-5.893c3.173-6.799,6.799-11.331,14.504-11.331
	s8.159,5.438,8.159,11.331v6.346c0,4.532,0,4.985-5.439,7.252c-4.08,1.813-7.252,3.626-11.332,4.986
	c-9.519,4.532-20.85,9.971-20.85,19.942c0,7.252,6.346,12.238,14.051,12.238c5.892,0,11.332-2.267,15.411-4.986
	c4.08-2.266,6.799-5.438,7.706-5.438c0.453,0,1.36,0.906,1.813,1.813c1.813,3.173,4.079,7.706,9.519,7.706
	c6.345,0,15.411-6.346,15.411-9.519C145.949,313.994,145.496,313.087,144.589,313.087z M119.207,302.662c0,4.08,0,6.346-2.719,9.519
	c-2.72,3.173-6.799,5.439-11.332,5.439c-4.986,0-8.612-2.72-8.612-8.159c0-5.892,4.533-9.518,9.519-12.237
	c3.173-1.813,6.799-3.626,9.972-4.986c1.359-0.906,2.266-1.359,3.173-1.359c0.453,0,0.453,0.906,0.453,3.626v8.158H119.207z
	 M927.818,318.98c-6.346-0.453-6.346-3.626-6.346-11.331v-41.699v-6.8c0-1.359,0-2.266-1.359-2.266s-1.813,0.906-3.173,1.813
	c-3.626,3.173-10.425,6.799-15.411,7.706c-2.266,0.453-4.079,0.453-4.079,2.719c0,1.36,0.907,1.36,4.079,1.813
	c4.986,0,5.893,1.813,5.893,10.425v26.289c0,8.611,0,11.331-6.799,11.784c-1.813,0-4.079,0-4.079,2.267
	c0,1.359,1.36,1.813,2.267,1.813c4.079,0,8.611-0.454,15.863-0.454c4.986,0,10.426,0.454,14.958,0.454
	c0.906,0,1.813-0.454,1.813-1.813C931.898,319.433,929.632,319.433,927.818,318.98z M957.28,256.884
	c-1.359,0-1.813,0.906-4.079,2.266c-2.72,2.72-9.519,6.346-13.598,7.253c-2.267,0.453-4.533,0.906-4.533,2.719
	c0,1.36,1.36,1.36,4.08,1.813c4.985,0.453,5.893,1.813,5.893,9.065v51.218c0,11.331-3.173,15.864-10.426,21.756
	c-1.813,1.36-2.719,1.813-2.719,3.173c0,0.907,0.906,1.36,1.813,1.36c2.267,0,14.957-8.612,19.037-14.505
	c5.438-6.346,6.346-13.145,6.346-20.85v-62.549C958.641,257.79,958.641,256.884,957.28,256.884z M951.388,246.006
	c4.533,0,8.612-3.627,8.612-8.612c0-4.986-3.626-8.158-8.158-8.158c-5.893,0-8.612,4.532-8.612,8.611
	C943.229,242.379,947.309,246.006,951.388,246.006z M914.221,246.006c4.986,0,8.612-3.627,8.612-8.612
	c0-4.532-3.626-8.158-8.159-8.158c-5.893,0-8.611,4.532-8.611,8.611C906.063,242.833,910.142,246.006,914.221,246.006z
	 M425.156,247.365c4.985,0,8.611-3.626,8.611-8.612c0-4.532-3.626-8.158-8.158-8.158c-5.893,0-8.612,4.532-8.612,8.611
	C416.997,244.193,421.076,247.365,425.156,247.365z M490.425,259.15c-5.438,0-9.972,3.627-12.691,6.346
	c-2.266,2.267-4.079,4.986-4.985,4.986s-0.906-0.906-0.906-2.72v-6.799c0-1.359,0-2.72-1.813-2.72c-1.359,0-1.813,0.906-3.626,2.267
	c-3.173,3.173-9.972,6.346-13.598,7.252c-3.173,0.906-4.533,0.906-4.533,2.72c0,1.359,0.907,1.359,4.08,1.813
	c4.985,0.454,5.438,1.813,5.438,10.426v24.476c0,9.064,0,12.69-6.799,12.69c-1.813,0-4.079,0-4.079,2.267
	c0,1.36,1.359,1.813,2.267,1.813c4.079,0,9.064-0.453,15.41-0.453s12.238,0.453,16.317,0.453c1.813,0,3.173-0.453,3.173-1.813
	c0-2.267-3.173-2.267-4.985-2.267c-7.252,0-7.252-4.079-7.252-10.878v-22.209c0-5.439,0-9.065,2.719-13.145
	c1.36-2.267,3.626-4.986,6.799-4.986c1.813,0,3.173,1.36,4.533,2.72c1.359,1.36,3.173,3.173,5.893,3.173
	c4.079,0,7.252-2.72,7.252-7.252C499.49,262.777,495.41,259.15,490.425,259.15L490.425,259.15z M224.816,319.886
	c-6.346-0.453-6.346-4.079-6.346-10.878v-24.476c0-8.158-0.453-14.051-4.533-19.037c-4.079-4.985-10.425-7.252-16.317-7.252
	c-6.345,0-11.785,2.72-15.864,5.893c-3.626,2.72-6.799,5.439-7.252,5.439c-0.454,0-0.454-0.907-0.454-2.72v-6.346
	c0-1.36,0-2.72-1.359-2.72c-1.36,0-1.813,1.359-3.173,2.267c-3.626,3.626-10.878,7.252-14.504,7.705
	c-1.813,0.453-4.08,0.453-4.08,2.72c0,1.359,1.36,1.359,4.08,1.813c4.533,0,5.439,1.813,5.439,9.519v25.383
	c0,9.064,0,12.69-6.346,12.69c-2.266,0.454-4.532,0.454-4.532,2.72c0,1.36,1.359,1.813,2.266,1.813c4.08,0,8.612-0.453,14.504-0.453
	c4.986,0,10.425,0.453,14.504,0.453c1.36,0,2.267-0.906,2.267-1.813c0-1.813-2.267-1.813-3.626-2.266
	c-5.439-0.454-5.439-4.08-5.439-10.879v-25.382c0-4.986,0.454-7.705,4.08-11.785c3.173-3.173,7.252-5.438,12.691-5.438
	c4.986,0,9.519,2.266,11.785,5.893c2.266,3.626,2.266,8.611,2.266,12.69v23.116c0,7.252,0,10.878-5.439,10.878
	c-1.36,0.453-3.626,0.453-3.626,2.267c0,1.359,1.36,1.813,2.267,1.813c4.079,0,8.612-0.454,13.145-0.454
	c4.532,0,11.332,0.454,15.864,0.454c0.907,0,1.813-0.454,1.813-1.813S226.629,320.34,224.816,319.886L224.816,319.886z
	 M535.297,258.697c-23.115,0-36.26,16.771-36.26,33.088c0,19.037,15.863,33.994,36.26,33.994c20.851,0,36.715-15.41,36.715-33.994
	C572.012,276.374,560.227,258.697,535.297,258.697z M536.204,321.699c-14.051,0-22.21-15.864-22.21-31.274
	c0-15.411,8.159-27.648,21.303-27.648c14.505,0,21.757,15.863,21.757,30.821C556.601,304.476,549.802,321.699,536.204,321.699z
	 M885.213,258.243c-5.439,0-9.519,3.626-12.691,6.346c-2.267,2.267-4.08,4.986-4.986,4.986s-0.906-0.907-0.906-2.72v-6.799
	c0-1.36,0-2.72-1.813-2.72c-1.36,0-1.813,0.906-3.627,2.267c-3.173,3.173-9.972,6.346-13.598,7.252
	c-3.173,0.906-4.532,0.906-4.532,2.72c0,1.359,0.906,1.359,4.079,1.813c4.986,0.453,5.439,1.813,5.439,10.425v24.476
	c0,9.065,0,12.691-6.799,12.691c-1.813,0-4.08,0-4.08,2.267c0,1.359,1.36,1.813,2.267,1.813c4.079,0,9.065-0.453,15.411-0.453
	s12.237,0.453,16.317,0.453c1.813,0,3.173-0.453,3.173-1.813c0-2.267-3.173-2.267-4.986-2.267c-7.252,0-7.252-4.079-7.252-10.878
	v-21.756c0-5.439,0-9.065,2.72-13.145c1.359-2.267,3.626-4.986,6.799-4.986c1.813,0,3.173,1.36,4.532,2.72s3.173,3.173,5.893,3.173
	c4.079,0,7.252-2.72,7.252-7.252C894.73,261.416,890.651,258.243,885.213,258.243z M689.405,257.337
	c-23.116,0-36.261,16.771-36.261,33.088c0,19.036,15.864,33.994,36.261,33.994c20.85,0,36.714-15.411,36.714-33.994
	C726.119,275.467,714.787,257.337,689.405,257.337z M690.765,320.34c-14.051,0-22.209-15.864-22.209-31.275
	c0-15.41,8.158-27.648,21.303-27.648c14.504,0,21.757,15.864,21.757,30.821C711.161,303.57,704.362,320.34,690.765,320.34z
	 M812.238,257.337c-16.771,0-37.168,10.878-37.168,33.994c0,17.224,13.145,33.088,33.995,33.088c9.972,0,17.224-2.72,23.569-8.159
	c1.813-1.359,5.438-4.985,5.438-6.799c0-0.906-0.453-1.359-1.359-1.359s-2.267,1.359-4.532,3.626
	c-3.627,2.72-8.612,5.439-15.864,5.439c-15.864,0-25.836-13.145-25.836-28.103c0-4.079,0.906-4.079,5.439-4.079h40.34
	c1.813,0,2.72-0.906,2.72-3.626C838.98,269.121,829.915,257.337,812.238,257.337z M820.396,278.187
	c-3.626,1.36-10.425,1.813-14.504,1.813h-10.425c-3.626,0-4.533-0.453-4.533-2.267c0-4.985,6.799-16.317,19.49-16.317
	c11.785,0,14.051,8.612,14.051,11.332C824.93,275.467,823.116,277.281,820.396,278.187z M307.309,319.886
	c-2.719,0-5.439-2.266-9.518-7.705c-6.346-8.611-13.145-17.224-19.49-25.835c-0.907-1.36-2.266-2.72-2.266-3.626
	c0-1.36,2.266-2.72,3.173-3.627c3.172-2.266,6.799-5.438,9.972-7.705c4.986-3.626,8.612-6.346,14.957-6.799
	c1.813,0,3.626-0.453,3.626-2.267c0-1.813-0.907-1.813-3.626-1.813c-4.079,0.453-9.065,0.453-14.051,0.453
	c-4.533,0-9.065,0-12.691-0.453c-2.266,0-3.626,0-3.626,1.813c0,2.72,3.626,2.267,4.986,2.267c1.813,0.453,4.986,0.453,4.986,2.72
	s-3.626,4.985-5.892,6.799c-5.439,4.532-11.332,9.065-16.771,13.145c-1.36,1.359-2.72,2.72-3.626,2.72
	c-0.906,0-0.906-1.813-0.906-3.173v-59.83c0-2.267,0-3.173-1.36-3.173c-0.906,0-2.266,0.906-3.626,1.359
	c-4.533,2.72-10.878,4.08-15.864,4.533c-1.813,0-3.172,0.906-3.172,1.813c0,1.36,1.359,1.813,3.172,1.813
	c4.986,0.453,6.799,0.453,6.799,7.705v68.441c0,6.346-0.454,9.519-6.799,9.519c-1.813,0-4.079,0-4.079,2.267
	c0,1.359,1.36,1.813,2.266,1.813c4.986,0,9.972-0.453,15.411-0.453c4.532,0,9.518,0.453,14.051,0.453c1.36,0,2.72-0.453,2.72-1.813
	c0-1.813-2.72-1.813-4.08-2.267c-2.719,0-4.986-1.813-4.986-7.252v-14.504c0-3.626,5.439-7.252,6.799-7.252s2.72,2.266,4.533,4.985
	c3.626,4.986,7.252,10.425,11.332,15.411c0.906,1.359,3.173,4.079,3.173,5.438c0,2.267-1.813,2.267-3.626,2.72
	c-1.36,0-3.173,0.453-3.173,2.267c0,1.813,1.359,1.813,2.266,1.813c4.986,0,10.425-0.453,15.411-0.453s10.425,0.453,15.411,0.453
	c1.36,0,2.72-0.453,2.72-1.813C311.841,320.34,309.122,319.886,307.309,319.886z M772.352,312.181c-0.907,0-1.813,0.906-4.08,2.267
	c-1.359,1.359-4.079,2.267-6.799,2.267c-7.252,0-7.705-8.159-7.705-14.958v-33.541c0-3.626,0.906-3.626,4.986-3.626
	c3.626,0,7.705,0.453,10.878,0.453c1.813,0,2.267-0.453,2.267-3.626c0-1.813,0-2.72-1.36-2.72c-4.079,0-10.425,0.453-14.504,0.453
	c-2.267,0-2.267-1.359-2.267-3.172V243.74c0-0.906,0-2.267-1.813-2.267c-1.36,0-1.813,0.906-2.72,2.72
	c-4.079,8.612-9.519,12.238-15.864,15.864c-1.813,0.906-2.72,1.359-2.72,2.72c0,1.359,1.36,1.813,3.173,1.813h4.079
	c1.36,0,2.267,0.453,2.267,2.72v35.807c0,9.065,0,13.145,3.626,17.225c2.72,2.719,6.799,4.532,11.331,4.532
	c9.973,0,18.584-7.705,18.584-10.425C773.711,313.087,773.258,312.181,772.352,312.181z M438.754,320.34
	c-6.346-0.454-6.346-3.626-6.346-11.332v-41.699v-6.799c0-1.36,0-2.267-1.36-2.267c-1.359,0-1.813,0.906-3.173,1.813
	c-3.626,3.173-10.425,6.799-15.411,7.705c-2.266,0.453-4.079,0.453-4.079,2.72c0,1.359,0.907,1.359,4.079,1.813
	c4.986,0,5.893,1.813,5.893,10.426v26.288c0,8.612,0,11.332-6.799,11.785c-1.813,0-4.08,0-4.08,2.266c0,1.36,1.36,1.813,2.267,1.813
	c4.079,0,8.612-0.453,15.864-0.453c4.985,0,10.425,0.453,14.957,0.453c0.906,0,1.813-0.453,1.813-1.813
	C442.833,320.34,440.566,320.34,438.754,320.34z M58.017,269.575c9.518,2.719,17.224,10.425,17.224,23.116
	c0,26.288-23.569,34.447-44.873,38.979c-2.266,0.453-4.533,0.906-6.799,0.906c-10.878,0-17.677-6.346-17.677-17.677
	c0-1.813,1.36-11.331,1.36-13.145c0-2.267,0-4.532-0.906-7.252c-0.907-3.626-0.907-6.346-0.907-9.065
	c0-4.532,0.453-7.705,0.453-11.784c0-6.346-1.813-8.159-1.813-13.598c0-1.813,1.36-10.425,1.36-12.691
	c0-6.346-2.719-8.612-2.719-12.238c0-0.906,0.453-4.532,0.453-5.438c0-8.612-3.173-11.332-3.173-17.678
	c0-3.173,0.906-8.158,4.986-8.158c7.252,0,14.504,1.813,18.583,8.611c4.533-3.626,8.159-6.345,11.785-8.158
	c4.08-0.906,8.612-1.813,14.051-1.813c19.037,0,30.368,14.052,30.368,32.635C79.773,247.819,70.255,263.683,58.017,269.575z
	 M50.765,222.89c-13.145,0-21.303,12.69-21.303,21.756c0,0.906,0.906,6.799,0.906,8.159c0,3.173-0.453,6.799-0.453,9.972
	c0,3.626,0.906,6.345,3.626,6.345c9.519,0,32.635-12.237,32.635-30.368C67.082,229.236,60.283,222.89,50.765,222.89z
	 M48.952,275.921c-8.159,0-12.691,1.813-15.411,4.079c-2.266,2.266-2.72,4.985-2.72,8.158c0,4.533,1.36,10.425,1.36,14.957
	c0,2.267-1.36,7.706-1.36,11.785c0,2.72,0.907,4.532,2.72,4.532c15.411,0,31.275-10.425,31.275-26.741
	C65.269,283.626,57.11,275.921,48.952,275.921z M588.328,310.368c0-3.626-2.266-7.253-2.266-10.425
	c0-7.252,1.359-14.505,1.359-21.757c0-6.346-1.359-14.051-1.359-20.396c0-5.439,1.359-10.425,1.813-15.864v-6.346
	c0-3.626-1.359-13.145-1.359-17.224c0-4.532,0.906-4.985,5.439-8.158c2.719-1.813,11.331-4.079,14.504-4.079
	c5.439,0,7.705,7.705,7.705,12.237c0,6.799-1.813,6.799-1.813,13.598c0,1.813,0.906,3.173,0.906,4.533
	c0,2.719-1.813,5.438-1.813,8.158s1.36,5.439,1.36,8.159c-0.906,5.438-0.906,12.237-0.906,19.489
	c0,11.332,0.906,22.663,0.906,29.915c0,2.72-0.906,4.986-0.906,7.252c0,10.425,43.059,2.267,43.059,10.425
	c0,7.253-21.756,7.253-27.195,7.253c-9.972,0-23.116,2.266-33.541,2.266c-6.799,0-9.519-1.813-9.519-8.158
	C585.156,317.167,588.328,314.448,588.328,310.368z M401.133,272.748c-3.626,1.813-4.533,3.173-4.533,6.799
	c0,27.648-17.224,47.592-33.088,47.592c-9.065,0-19.49-4.08-24.476-12.691c-3.173-5.893-3.626-7.705-9.065-11.785
	c-7.706-5.438-4.533-14.504-11.332-21.303c-1.36-1.813-2.266-4.079-2.266-6.799c0-1.359,0.453-2.72,0.906-3.626
	c0.907-0.906,0.907-2.267,0.907-3.626c0-2.267-0.454-4.079-0.454-6.346c0.454-11.331,4.533-18.13,9.519-27.648
	c13.145-24.93,30.368-31.729,51.671-35.354c0.907,0,6.799-0.453,10.425,0.453c2.719,0.453,4.532,0.907,5.439,1.36
	c2.266,1.359,3.173,2.266,3.173,3.626c0,1.359,1.359,7.705-1.813,6.799c-2.72-0.906-8.159-2.267-12.238-2.267
	c-9.519,0.453-18.583,3.626-24.476,7.705c-14.051,9.972-16.771,19.49-16.771,34.448c0,19.943,0.454,21.756,8.159,33.541
	c6.346,9.065,14.504,22.662,23.569,22.662c6.346,0,12.691-9.971,13.598-21.303c0.453-6.799-0.454-9.519-8.612-11.784
	c-7.252-1.813-15.864-2.72-15.864-8.612c0-6.346,14.051-10.878,24.929-10.878c5.892,0,12.691,2.267,13.145,10.878
	C401.586,268.215,402.946,271.841,401.133,272.748L401.133,272.748z"/>
<g>
	<path id="BGL-a" d="M58.017,269.575c9.518,2.719,17.224,10.425,17.224,23.116c0,26.288-23.569,34.447-44.873,38.979
		c-2.266,0.453-4.533,0.906-6.799,0.906c-10.878,0-17.677-6.346-17.677-17.677c0-1.813,1.36-11.331,1.36-13.145
		c0-2.267,0-4.532-0.906-7.252c-0.907-3.626-0.907-6.346-0.907-9.065c0-4.532,0.453-7.705,0.453-11.784
		c0-6.346-1.813-8.159-1.813-13.598c0-1.813,1.36-10.425,1.36-12.691c0-6.346-2.719-8.612-2.719-12.238
		c0-0.906,0.453-4.532,0.453-5.438c0-8.612-3.173-11.332-3.173-17.678c0-3.173,0.906-8.158,4.986-8.158
		c7.252,0,14.504,1.813,18.583,8.611c4.533-3.626,8.159-6.345,11.785-8.158c4.08-0.906,8.612-1.813,14.051-1.813
		c19.037,0,30.368,14.052,30.368,32.635C79.773,247.819,70.255,263.683,58.017,269.575z M50.765,222.89
		c-13.145,0-21.303,12.69-21.303,21.756c0,0.906,0.906,6.799,0.906,8.159c0,3.173-0.453,6.799-0.453,9.972
		c0,3.626,0.906,6.345,3.626,6.345c9.519,0,32.635-12.237,32.635-30.368C67.082,229.236,60.283,222.89,50.765,222.89z
		 M48.952,275.921c-8.159,0-12.691,1.813-15.411,4.079c-2.266,2.266-2.72,4.985-2.72,8.158c0,4.533,1.36,10.425,1.36,14.957
		c0,2.267-1.36,7.706-1.36,11.785c0,2.72,0.907,4.532,2.72,4.532c15.411,0,31.275-10.425,31.275-26.741
		C65.269,283.626,57.11,275.921,48.952,275.921z M119.207,274.108c0-5.893-0.453-11.331-8.158-11.331
		c-7.706,0-11.332,4.532-14.504,11.331c-1.36,2.72-2.72,4.985-5.439,5.893c-1.36,0.453-4.08,1.359-6.346,1.359
		c-1.813,0-2.72-0.906-2.72-2.72c0-7.705,13.598-19.943,32.635-19.943c4.986,0,11.785,0.907,15.411,4.08
		c2.72,2.266,2.72,4.532,2.72,11.331v32.181c0,4.08,0.453,10.425,4.532,10.425c1.813,0,3.173-0.906,4.08-1.813
		c0.906-0.906,1.813-1.813,2.266-1.813c0.907,0,0.907,0.907,0.907,2.267c0,3.173-9.065,9.519-15.411,9.519
		c-4.986,0-7.252-4.532-9.518-7.705c-0.907-0.907-1.36-1.813-1.813-1.813c-0.907,0-3.626,2.72-7.706,5.439
		s-9.519,4.985-15.411,4.985c-7.706,0-14.051-4.532-14.051-12.237c0-9.972,11.332-15.411,20.85-19.943
		c3.626-1.36,7.252-3.173,11.332-4.986c5.439-2.266,5.439-2.719,5.439-7.252v-7.252H119.207z M96.544,309.461
		c0,4.986,4.079,8.159,8.612,8.159s8.612-2.267,11.332-5.439c2.719-3.173,2.719-5.438,2.719-9.519v-8.611
		c0-2.72,0-3.626-0.453-3.626c-0.906,0-1.813,0.453-3.173,1.359c-3.173,1.36-6.799,3.626-9.972,4.986
		C101.077,299.49,96.544,303.115,96.544,309.461L96.544,309.461z M160,282.266c0-7.705-0.453-9.518-5.439-9.518
		c-2.72,0-4.08-0.454-4.08-1.813c0-1.813,2.267-2.267,4.08-2.72c3.626-0.906,11.331-4.532,14.504-7.705
		c0.907-0.906,1.813-2.267,3.173-2.267s1.36,1.36,1.36,2.72v6.346c0,1.813,0,2.72,0.453,2.72c0.454,0,3.626-2.72,7.252-5.439
		c4.079-3.173,9.518-5.893,15.864-5.893c5.893,0,12.238,1.813,16.317,7.253c4.079,4.985,4.533,10.878,4.533,19.036v24.476
		c0,6.799,0,10.879,6.345,10.879c1.813,0,4.08,0.453,4.08,2.266c0,1.36-1.36,1.813-1.813,1.813c-4.533,0-10.878-0.453-15.864-0.453
		s-9.518,0.453-13.145,0.453c-1.359,0-2.266-0.453-2.266-1.813c0-1.813,1.813-1.813,3.626-2.266
		c5.439-0.454,5.439-4.08,5.439-10.879v-23.115c0-4.08,0-9.065-2.267-12.691c-2.266-3.626-6.799-5.893-11.785-5.893
		s-9.519,1.813-12.691,5.439c-3.626,3.626-4.08,6.799-4.08,11.784v24.929c0,7.253,0,10.879,5.439,10.879
		c1.36,0,3.626,0.453,3.626,2.266c0,1.36-0.907,1.813-2.267,1.813c-4.079,0-9.519-0.453-14.504-0.453
		c-5.439,0-9.972,0.453-14.504,0.453c-0.907,0-2.267-0.453-2.267-1.813c0-2.266,2.267-2.266,4.08-2.266
		c6.346-0.453,6.346-4.079,6.346-12.691v-25.836H160z M242.946,241.926c0-7.252-1.813-7.705-6.799-7.705
		c-1.813-0.453-3.173-0.453-3.173-1.813c0-1.359,1.359-1.813,3.173-1.813c4.986-0.453,11.331-2.267,15.864-4.532
		c0.907-0.907,2.266-1.36,3.626-1.36s1.36,0.906,1.36,3.173v60.283c0,1.36,0,3.173,0.907,3.173c0.906,0,2.266-1.359,3.626-2.72
		c5.439-4.532,11.332-9.064,16.771-13.145c2.266-1.813,5.892-4.532,5.892-6.799c0-2.266-2.719-2.719-4.986-2.719
		c-1.359,0-4.986,0-4.986-2.267c0-1.813,1.36-1.813,3.626-1.813c3.626,0.453,8.159,0.453,12.691,0.453c4.986,0,9.972,0,14.051-0.453
		c2.719,0,3.626,0,3.626,1.813c0,1.813-1.813,1.813-3.626,2.267c-6.346,0.453-9.972,3.172-14.958,6.799
		c-3.173,2.266-6.799,5.438-9.972,7.705c-0.907,0.906-3.173,2.267-3.173,3.626s1.36,2.267,2.266,3.626
		c6.799,8.612,13.145,17.224,19.49,25.836c4.079,5.438,6.346,7.705,9.519,7.705c1.813,0,4.532,0.453,4.532,2.267
		c0,1.813-1.36,1.813-2.719,1.813c-4.986,0-10.425-0.453-15.411-0.453s-10.425,0.453-15.411,0.453c-0.906,0-2.266,0-2.266-1.813
		c0-1.813,1.813-1.813,3.173-2.267c1.813,0,3.626-0.453,3.626-2.72c0-1.359-1.813-4.079-3.173-5.439
		c-3.626-4.985-7.252-10.425-11.332-15.41c-1.813-2.267-3.626-4.985-4.533-4.985c-1.359,0-6.799,3.626-6.799,7.252v14.504
		c0,4.985,2.267,6.799,4.986,7.252c1.36,0,4.08,0.453,4.08,2.267c0,1.359-1.36,1.813-2.72,1.813c-4.533,0-9.519-0.453-14.051-0.453
		c-4.986,0-9.972,0.453-15.411,0.453c-1.359,0-2.266-0.453-2.266-1.813c0-2.267,2.266-2.267,4.08-2.267
		c6.345,0,6.799-3.173,6.799-9.519V241.926L242.946,241.926z M418.357,282.266c0-8.611-0.453-9.972-5.893-10.425
		c-3.172,0-4.079,0-4.079-1.813c0-1.813,1.813-2.267,4.079-2.72c4.986-0.906,11.785-4.532,15.411-7.705
		c1.36-1.36,1.813-1.813,3.173-1.813c1.36,0,1.36,0.906,1.36,2.267v48.498c0,7.252,0,10.878,6.346,11.331
		c1.813,0,4.079,0,4.079,2.267c0,1.36-1.36,1.813-1.813,1.813c-4.532,0-9.972-0.453-14.957-0.453
		c-7.252,0-11.785,0.453-15.864,0.453c-1.36,0-2.266-0.453-2.266-1.813c0-2.267,2.266-2.267,4.079-2.267
		c6.799,0,6.799-3.172,6.799-11.784v-25.836H418.357z M425.156,247.365c-4.08,0-8.159-3.173-8.159-8.158
		c0-4.08,2.72-8.612,8.612-8.612c4.532,0,8.158,3.626,8.158,8.158C433.768,243.74,430.142,247.365,425.156,247.365z
		 M458.244,283.173c0-8.612-0.454-10.425-5.439-10.425c-3.173-0.454-4.079-0.454-4.079-1.813c0-1.813,1.359-2.267,4.532-2.72
		c4.079-0.906,10.425-4.532,13.598-7.252c1.813-1.359,2.267-2.267,3.626-2.267c1.813,0,1.813,1.36,1.813,2.72v6.799
		c0,1.813,0,2.72,0.906,2.72s2.267-2.72,4.986-4.985c2.719-2.72,6.799-6.346,12.69-6.346c4.986,0,9.065,3.173,9.065,8.158
		c0,4.532-3.173,7.252-7.252,7.252c-2.72,0-4.079-1.359-5.893-3.173c-1.359-1.359-2.72-2.72-4.532-2.72
		c-3.173,0-4.986,2.72-6.799,4.986c-2.72,4.079-2.72,7.705-2.72,13.145v22.209c0,7.253,0,10.879,7.252,10.879
		c1.813,0,4.986,0,4.986,2.266c0,1.36-1.36,1.813-3.173,1.813c-4.08,0-9.972-0.453-16.317-0.453s-11.332,0.453-15.411,0.453
		c-1.359,0-2.267-0.453-2.267-1.813c0-2.266,2.267-2.266,4.08-2.266c6.799,0,6.799-3.626,6.799-12.691v-24.476H458.244z
		 M535.298,325.325c-20.397,0-36.261-14.957-36.261-33.994c0-16.317,13.145-33.088,36.261-33.088
		c24.929,0,36.714,17.678,36.714,33.088C572.012,310.368,556.147,325.325,535.298,325.325z M536.204,321.699
		c13.598,0,20.85-16.771,20.85-28.102c0-14.958-7.252-30.821-21.757-30.821c-13.144,0-21.303,12.237-21.303,27.648
		C513.994,305.835,522.153,321.699,536.204,321.699z M588.328,310.368c0-3.626-2.266-7.253-2.266-10.425
		c0-7.252,1.359-14.505,1.359-21.757c0-6.346-1.359-14.051-1.359-20.396c0-5.439,1.359-10.425,1.813-15.864v-6.346
		c0-3.626-1.359-13.145-1.359-17.224c0-4.532,0.906-4.985,5.439-8.158c2.719-1.813,11.331-4.079,14.504-4.079
		c5.439,0,7.705,7.705,7.705,12.237c0,6.799-1.813,6.799-1.813,13.598c0,1.813,0.906,3.173,0.906,4.533
		c0,2.719-1.813,5.438-1.813,8.158s1.36,5.439,1.36,8.159c-0.906,5.438-0.906,12.237-0.906,19.489
		c0,11.332,0.906,22.663,0.906,29.915c0,2.72-0.906,4.986-0.906,7.252c0,10.425,43.059,2.267,43.059,10.425
		c0,7.253-21.756,7.253-27.195,7.253c-9.972,0-23.116,2.266-33.541,2.266c-6.799,0-9.519-1.813-9.519-8.158
		C585.156,317.167,588.328,314.448,588.328,310.368z M689.405,324.419c-20.396,0-36.261-14.958-36.261-33.994
		c0-16.317,13.145-33.088,36.261-33.088c24.929,0,36.714,17.677,36.714,33.088C726.119,309.008,710.708,324.419,689.405,324.419z
		 M690.765,320.34c13.598,0,20.851-16.771,20.851-28.103c0-14.957-7.253-30.821-21.757-30.821
		c-13.145,0-21.303,12.238-21.303,27.648C668.102,304.476,676.714,320.34,690.765,320.34z M753.768,301.756
		c0,7.252,0.906,14.958,7.705,14.958c2.72,0,4.986-1.36,6.799-2.267c2.267-1.36,3.173-2.267,4.08-2.267
		c0.906,0,1.359,0.906,1.359,1.36c0,2.719-8.611,10.425-18.584,10.425c-4.532,0-9.064-1.36-11.331-4.533
		c-3.626-4.079-3.626-7.705-3.626-17.224v-35.807c0-2.72-0.453-2.72-2.267-2.72h-4.079c-1.813,0-3.173-0.453-3.173-1.813
		c0-1.359,0.906-1.813,2.72-2.72c6.799-3.626,12.238-6.799,15.864-15.863c0.906-1.813,1.359-2.72,2.72-2.72
		c1.359,0,1.813,1.359,1.813,2.267v11.784c0,1.813,0,3.173,2.267,3.173c4.079,0,10.425-0.453,14.504-0.453
		c1.36,0,1.36,0.906,1.36,2.72c0,3.173-0.454,3.626-2.267,3.626c-3.173,0-7.252-0.453-10.878-0.453c-4.533,0-4.986,0-4.986,3.626
		V301.756L753.768,301.756z M795.921,284.532c-4.986,0-5.439,0-5.439,4.079c0,14.958,9.972,28.103,25.836,28.103
		c7.252,0,12.238-2.72,15.864-5.439c2.266-1.813,3.626-3.626,4.532-3.626s1.36,0.906,1.36,1.359c0,1.813-4.08,5.439-5.439,6.799
		c-6.346,5.439-13.598,8.159-23.569,8.159c-20.396,0-33.994-15.864-33.994-33.088c0-23.116,20.396-33.994,37.167-33.994
		c17.677,0,26.742,11.784,26.742,23.116c0,2.72-0.906,3.626-2.72,3.626h-40.34V284.532z M791.388,277.734
		c0,1.813,0.907,2.267,4.533,2.267h10.425c4.079,0,10.878-0.453,14.504-1.813c2.72-0.906,4.533-2.266,4.533-5.438
		c0-2.72-2.267-11.332-14.052-11.332C798.188,260.963,791.388,272.294,791.388,277.734z M853.031,281.813
		c0-8.611-0.453-10.425-5.439-10.425c-3.173-0.453-4.079-0.453-4.079-1.813c0-1.813,1.36-2.267,4.532-2.72
		c4.08-0.906,10.426-4.533,13.599-7.252c1.813-1.36,2.266-2.267,3.626-2.267c1.813,0,1.813,1.359,1.813,2.72v6.799
		c0,1.813,0,2.72,0.906,2.72c0.907,0,2.267-2.72,4.986-4.986c2.72-2.72,6.799-6.346,12.691-6.346c4.985,0,9.064,3.173,9.064,8.159
		c0,4.532-3.172,7.252-7.252,7.252c-2.719,0-4.079-1.36-5.893-3.173c-1.359-1.36-2.719-2.72-4.532-2.72
		c-3.173,0-4.985,2.72-6.799,4.986c-2.72,4.079-2.72,7.705-2.72,13.145v21.756c0,7.252,0,10.878,7.252,10.878
		c1.813,0,4.986,0,4.986,2.267c0,1.359-1.359,1.813-3.173,1.813c-4.079,0-9.972-0.453-16.317-0.453s-11.331,0.453-15.41,0.453
		c-1.36,0-2.267-0.453-2.267-1.813c0-2.267,2.267-2.267,4.079-2.267c6.799,0,6.799-3.626,6.799-12.691v-24.022H853.031z
		 M907.422,281.36c0-8.611-0.453-9.972-5.893-10.425c-3.172,0-4.079,0-4.079-1.813c0-1.813,1.813-2.266,4.079-2.719
		c4.986-0.907,11.785-4.533,15.411-7.706c1.36-1.359,1.813-1.813,3.173-1.813s1.359,0.906,1.359,2.266v48.499
		c0,7.252,0,10.878,6.346,11.331c1.813,0,4.08,0,4.08,2.267c0,1.359-1.36,1.813-1.813,1.813c-4.532,0-9.972-0.453-14.958-0.453
		c-7.252,0-11.784,0.453-15.863,0.453c-1.36,0-2.267-0.453-2.267-1.813c0-2.267,2.267-2.267,4.079-2.267
		c6.799,0,6.799-3.173,6.799-11.784V281.36H907.422z M914.221,246.006c-4.079,0-8.158-3.173-8.158-8.159
		c0-4.079,2.72-8.611,8.611-8.611c4.533,0,8.159,3.626,8.159,8.158C922.833,242.833,919.207,246.006,914.221,246.006z
		 M958.641,322.606c0,7.706-0.453,14.505-6.346,20.851c-4.533,5.892-16.771,14.504-19.037,14.504c-0.906,0-1.813-0.453-1.813-1.36
		c0-1.359,0.906-1.813,2.719-3.172c7.253-5.893,10.426-10.426,10.426-21.757V280c0-7.252-0.454-9.065-5.893-9.065
		c-2.267,0-4.079,0-4.079-1.813c0-1.813,1.813-2.266,4.532-2.719c4.532-0.907,10.878-4.533,13.598-7.253
		c1.813-1.359,2.72-2.266,4.079-2.266c1.36,0,1.36,0.906,1.36,2.72v63.002H958.641z M951.389,246.006
		c-4.08,0-8.159-3.627-8.159-8.159c0-4.079,2.72-8.611,8.612-8.611c4.532,0,8.158,3.172,8.158,8.158
		C960,242.833,956.374,246.006,951.389,246.006z M401.133,272.748c-3.626,1.813-4.533,3.173-4.533,6.799
		c0,27.648-17.224,47.592-33.088,47.592c-9.065,0-19.49-4.08-24.476-12.691c-3.173-5.893-3.626-7.705-9.065-11.785
		c-7.706-5.438-4.533-14.504-11.332-21.303c-1.36-1.813-2.266-4.079-2.266-6.799c0-1.359,0.453-2.72,0.906-3.626
		c0.907-0.906,0.907-2.267,0.907-3.626c0-2.267-0.454-4.079-0.454-6.346c0.454-11.331,4.533-18.13,9.519-27.648
		c13.145-24.93,30.368-31.729,51.671-35.354c0.907,0,6.799-0.453,10.425,0.453c2.719,0.453,4.532,0.907,5.439,1.36
		c2.266,1.359,3.173,2.266,3.173,3.626c0,1.359,1.359,7.705-1.813,6.799c-2.72-0.906-8.159-2.267-12.238-2.267
		c-9.519,0.453-18.583,3.626-24.476,7.705c-14.051,9.972-16.771,19.49-16.771,34.448c0,19.943,0.454,21.756,8.159,33.541
		c6.346,9.065,14.504,22.662,23.569,22.662c6.346,0,12.691-9.971,13.598-21.303c0.453-6.799-0.454-9.519-8.612-11.784
		c-7.252-1.813-15.864-2.72-15.864-8.612c0-6.346,14.051-10.878,24.929-10.878c5.892,0,12.691,2.267,13.145,10.878
		C401.586,268.215,402.946,271.841,401.133,272.748L401.133,272.748z"/>
</g>
</svg>
