<?xml version="1.0" encoding="utf-8"?>
<!-- Generator: Adobe Illustrator 16.0.3, SVG Export Plug-In . SVG Version: 6.00 Build 0)  -->
<!DOCTYPE svg PUBLIC "-//W3C//DTD SVG 1.1//EN" "http://www.w3.org/Graphics/SVG/1.1/DTD/svg11.dtd">
<svg version="1.1" id="Layer_1" xmlns="http://www.w3.org/2000/svg" xmlns:xlink="http://www.w3.org/1999/xlink" x="0px" y="0px"
	 width="775.866px" height="537.669px" viewBox="71.745 7.233 775.866 537.669"
	 enable-background="new 71.745 7.233 775.866 537.669" xml:space="preserve">
<path d="M728.271,329.971"/>
<path fill="none" stroke="#000000" stroke-width="25" stroke-miterlimit="10" d="M717.167,285.552
	c-4.759,20.623-14.277,41.247-25.382,60.283c-58.697,101.528-164.986,171.331-282.381,184.021
	C269.8,545.72,163.511,482.264,163.511,482.264c85.666,25.383,196.716-61.869,196.716-61.869
	c-98.357,12.689-123.741-85.666-123.741-85.666c25.382,0,49.178-12.691,49.178-12.691C187.309,296.657,187.309,198.3,187.309,198.3
	c25.383,12.691,61.87,12.691,61.87,12.691C150.821,138.017,212.691,39.66,212.691,39.66s61.87,85.665,134.844,111.048
	c72.975,25.383,123.739,25.383,134.845,25.383h14.277c-3.173-11.104-3.173-23.797-1.587-36.486
	c4.76-57.11,50.766-103.116,107.876-109.462c74.561-7.934,136.431,49.179,136.431,122.151
	C740.963,150.708,739.377,228.442,717.167,285.552z"/>
<path fill="none" stroke="#000000" stroke-width="25" stroke-miterlimit="10" d="M753.654,103.116c0,0,20.623,1.586,44.419-9.52
	c-12.69,14.276-30.144,33.313-44.419,39.659"/>
<path fill="none" stroke="#000000" stroke-width="25" stroke-miterlimit="10" d="M718.754,55.524c0,0,47.592-12.689,60.283-19.036
	c-7.933,14.277-25.383,33.314-34.901,38.073"/>
</svg>
