<?xml version="1.0" encoding="iso-8859-1"?>
<!-- Generator: Adobe Illustrator 16.0.3, SVG Export Plug-In . SVG Version: 6.00 Build 0)  -->
<!DOCTYPE svg PUBLIC "-//W3C//DTD SVG 1.1//EN" "http://www.w3.org/Graphics/SVG/1.1/DTD/svg11.dtd">
<svg version="1.1" id="Layer_1" xmlns="http://www.w3.org/2000/svg" xmlns:xlink="http://www.w3.org/1999/xlink" x="0px" y="0px"
	 width="281.068px" height="514.08px" viewBox="340.109 21.672 281.068 514.08"
	 style="enable-background:new 340.109 21.672 281.068 514.08;" xml:space="preserve">
<path style="fill:none;stroke:#000000;stroke-width:3;stroke-miterlimit:10;" d="M608.092,23.172h-66.942
	c-74.667,0-123.586,50.207-123.586,126.161v57.931l0,0h-65.655c-6.437,0-10.299,5.149-10.299,10.299v83.679
	c0,6.437,5.149,10.299,10.299,10.299h66.942l0,0v212.413c0,6.438,5.149,10.299,10.299,10.299h87.54
	c6.437,0,10.299-5.149,10.299-10.299V314.115l0,0h78.529c6.437,0,10.299-5.149,10.299-10.299v-84.965
	c0-2.575-1.288-5.149-2.575-7.725c-1.287-2.574-5.149-2.574-7.724-2.574h-78.529l0,0v-48.92c0-23.172,5.149-36.046,37.334-36.046
	h45.057c6.438,0,10.299-5.149,10.299-10.299V33.471C619.678,27.034,614.528,23.172,608.092,23.172z"/>
</svg>
