<?xml version="1.0" encoding="utf-8"?>
<!-- Generator: Adobe Illustrator 16.0.3, SVG Export Plug-In . SVG Version: 6.00 Build 0)  -->
<!DOCTYPE svg PUBLIC "-//W3C//DTD SVG 1.1//EN" "http://www.w3.org/Graphics/SVG/1.1/DTD/svg11.dtd">
<svg version="1.1" id="Layer_1" xmlns="http://www.w3.org/2000/svg" xmlns:xlink="http://www.w3.org/1999/xlink" x="0px" y="0px"
	 width="539.943px" height="539.942px" viewBox="210.672 10.672 539.943 539.942"
	 enable-background="new 210.672 10.672 539.943 539.942" xml:space="preserve">
<path fill="none" stroke="#000000" stroke-width="25" stroke-miterlimit="10" d="M635.126,538.115H326.161
	c-56.645,0-102.989-46.345-102.989-102.986V126.16c0-56.646,46.345-102.988,102.989-102.988h308.965
	c56.646,0,102.989,46.345,102.989,102.988v308.966C738.115,491.77,691.771,538.115,635.126,538.115z"/>
<path fill="none" stroke="#000000" stroke-width="25" stroke-miterlimit="10" d="M591.356,280.644
	c0,61.793-50.207,110.712-110.715,110.712c-60.506,0-110.711-50.207-110.711-110.712c0-60.506,50.207-110.713,110.711-110.713
	C541.148,169.931,591.356,218.851,591.356,280.644z"/>
<path fill="none" stroke="#000000" stroke-width="25" stroke-miterlimit="10" d="M655.725,123.586
	c-5.148,5.147-14.159,3.86-19.311-1.287c-5.15-5.149-5.149-14.161,1.287-19.313c6.436-5.148,14.161-5.147,19.311,1.287
	C662.162,110.711,662.161,118.437,655.725,123.586z"/>
</svg>
