<?xml version="1.0" encoding="utf-8"?>
<!-- Generator: Adobe Illustrator 16.0.3, SVG Export Plug-In . SVG Version: 6.00 Build 0)  -->
<!DOCTYPE svg PUBLIC "-//W3C//DTD SVG 1.1//EN" "http://www.w3.org/Graphics/SVG/1.1/DTD/svg11.dtd">
<svg version="1.1" id="Layer_1" xmlns="http://www.w3.org/2000/svg" xmlns:xlink="http://www.w3.org/1999/xlink" x="0px" y="0px"
	 width="303.068px" height="536.084px" viewBox="329.11 10.672 303.068 536.084"
	 enable-background="new 329.11 10.672 303.068 536.084" xml:space="preserve">
<path fill="none" stroke="#000000" stroke-width="25" stroke-miterlimit="10" d="M608.092,23.172H541.15
	c-74.667,0-123.586,50.207-123.586,126.161v57.933l0,0h-65.655c-6.437,0-10.299,5.147-10.299,10.299v83.679
	c0,6.438,5.147,10.301,10.299,10.301h66.942l0,0v212.411c0,6.438,5.147,10.301,10.299,10.301h87.539c6.438,0,10.3-5.149,10.3-10.301
	v-209.84l0,0h78.527c6.438,0,10.301-5.147,10.301-10.299v-84.965c0-2.575-1.288-5.149-2.575-7.727
	c-1.287-2.574-5.149-2.574-7.726-2.574h-78.527l0,0v-48.92c0-23.172,5.147-36.046,37.334-36.046h45.057
	c6.438,0,10.299-5.147,10.299-10.299V33.471C619.677,27.034,614.528,23.172,608.092,23.172z"/>
</svg>
