<?xml version="1.0" encoding="iso-8859-1"?>
<!-- Generator: Adobe Illustrator 19.0.0, SVG Export Plug-In . SVG Version: 6.00 Build 0)  -->
<svg xmlns="http://www.w3.org/2000/svg" xmlns:xlink="http://www.w3.org/1999/xlink" version="1.1" id="Layer_1" x="0px" y="0px" viewBox="0 0 456.727 456.727" style="enable-background:new 0 0 456.727 456.727;" xml:space="preserve" width="512px" height="512px">
<g>
	<path d="M415.863,315.864l-30-30v-80.366c0-76.725-54.865-140.625-127.5-154.634v-20c0-16.542-13.458-30-30-30s-30,13.458-30,30v20   c-72.635,14.01-127.5,77.909-127.5,154.634l0,80.366l-30,30v40h-30v30h30h375h30v-30h-30V315.864z" fill="#FFFFFF"/>
	<path d="M228.363,455.863c27.922,0,52.019-16.353,63.255-40H165.109C176.344,439.51,200.441,455.863,228.363,455.863z" fill="#FFFFFF"/>
	<path d="M427.262,167.464l29.465-5.638c-6.407-33.488-20.473-65.803-40.674-93.451c-20.075-27.474-46.39-50.603-76.099-66.884   L325.536,27.8C378.784,56.981,415.861,107.887,427.262,167.464z" fill="#FFFFFF"/>
	<path d="M131.19,27.8L116.772,1.491c-29.709,16.282-56.023,39.41-76.099,66.884C20.473,96.024,6.407,128.338,0,161.827   l29.465,5.638C40.865,107.887,77.942,56.981,131.19,27.8z" fill="#FFFFFF"/>
</g>
<g>
</g>
<g>
</g>
<g>
</g>
<g>
</g>
<g>
</g>
<g>
</g>
<g>
</g>
<g>
</g>
<g>
</g>
<g>
</g>
<g>
</g>
<g>
</g>
<g>
</g>
<g>
</g>
<g>
</g>
</svg>
